<svg width="32" height="32" viewBox="0 0 32 32" fill="none" xmlns="http://www.w3.org/2000/svg">
  <path d="M16 2C16 2 12 6 12 12C12 16 14 18 16 18C18 18 20 16 20 12C20 6 16 2 16 2Z" fill="#FFD700"/>
  <path d="M16 18C16 18 20 20 20 24C20 26 18 28 16 28C14 28 12 26 12 24C12 20 16 18 16 18Z" fill="#FFA500"/>
  <path d="M14 4L16 2L18 4" stroke="#8B4513" stroke-width="1" stroke-linecap="round"/>
  <circle cx="16" cy="10" r="1" fill="#FFFFFF"/>
  <circle cx="16" cy="14" r="1" fill="#FFFFFF"/>
  <path d="M12 8L20 8M12 12L20 12" stroke="#FFA500" stroke-width="1"/>
</svg>
