<svg width="32" height="32" viewBox="0 0 32 32" fill="none" xmlns="http://www.w3.org/2000/svg">
  <path d="M16 20 Q18 18 20 20 Q18 22 16 20" fill="#9C27B0" stroke="#7B1FA2" stroke-width="2"/>
  <path d="M16 20 Q14 18 12 20 Q14 22 16 20" fill="#9C27B0"/>
  <path d="M16 16 Q18 14 20 16 Q18 18 16 16" fill="#9C27B0"/>
  <path d="M16 16 Q14 14 12 16 Q14 18 16 16" fill="#9C27B0"/>
  <path d="M16 12 Q18 10 20 12 Q18 14 16 12" fill="#9C27B0"/>
  <path d="M16 12 Q14 10 12 12 Q14 14 16 12" fill="#9C27B0"/>
  <path d="M16 24 Q18 26 16 28 Q14 26 16 24" fill="#4CAF50"/>
  <circle cx="16" cy="16" r="2" fill="#E1BEE7"/>
</svg>
