<svg width="32" height="32" viewBox="0 0 32 32" fill="none" xmlns="http://www.w3.org/2000/svg">
  <path d="M16 4C16 4 12 8 12 16C12 20 14 24 16 26C18 24 20 20 20 16C20 8 16 4 16 4Z" fill="#FF8C42"/>
  <path d="M16 4C16 4 12 8 12 16C12 20 14 24 16 26C18 24 20 20 20 16C20 8 16 4 16 4Z" fill="#FF6B35" fill-opacity="0.3"/>
  <path d="M14 8L18 8M14 12L18 12M14 16L18 16M14 20L18 20" stroke="#D2691E" stroke-width="1"/>
  <path d="M16 2L14 4L16 6L18 4L16 2Z" fill="#228B22"/>
  <path d="M16 6L16 2" stroke="#8B4513" stroke-width="1" stroke-linecap="round"/>
</svg>
