<svg width="32" height="32" viewBox="0 0 32 32" fill="none" xmlns="http://www.w3.org/2000/svg">
  <path d="M16 2C16 2 12 6 12 12C12 16 14 18 16 18C18 18 20 16 20 12C20 6 16 2 16 2Z" fill="url(#rainbow)"/>
  <path d="M16 18C16 18 20 20 20 24C20 26 18 28 16 28C14 28 12 26 12 24C12 20 16 18 16 18Z" fill="url(#rainbow2)"/>
  <path d="M14 4L16 2L18 4" stroke="#8B4513" stroke-width="1" stroke-linecap="round"/>
  <defs>
    <linearGradient id="rainbow" x1="0%" y1="0%" x2="100%" y2="0%">
      <stop offset="0%" style="stop-color:#FF0000;stop-opacity:1" />
      <stop offset="16.66%" style="stop-color:#FF8000;stop-opacity:1" />
      <stop offset="33.33%" style="stop-color:#FFFF00;stop-opacity:1" />
      <stop offset="50%" style="stop-color:#00FF00;stop-opacity:1" />
      <stop offset="66.66%" style="stop-color:#0080FF;stop-opacity:1" />
      <stop offset="83.33%" style="stop-color:#8000FF;stop-opacity:1" />
      <stop offset="100%" style="stop-color:#FF0080;stop-opacity:1" />
    </linearGradient>
    <linearGradient id="rainbow2" x1="0%" y1="0%" x2="100%" y2="0%">
      <stop offset="0%" style="stop-color:#FF0080;stop-opacity:1" />
      <stop offset="50%" style="stop-color:#8000FF;stop-opacity:1" />
      <stop offset="100%" style="stop-color:#0080FF;stop-opacity:1" />
    </linearGradient>
  </defs>
</svg>
