<svg width="32" height="32" viewBox="0 0 32 32" fill="none" xmlns="http://www.w3.org/2000/svg">
  <circle cx="16" cy="16" r="12" fill="#FFC107" stroke="#FF8F00" stroke-width="2"/>
  <circle cx="16" cy="16" r="8" fill="#FFEB3B"/>
  <circle cx="16" cy="16" r="4" fill="#8D6E63"/>
  <path d="M16 4 Q18 6 16 8 Q14 6 16 4" fill="#4CAF50"/>
  <path d="M16 4 Q18 6 16 8" fill="#8BC34A"/>
  <path d="M16 8 Q18 10 16 12 Q14 10 16 8" fill="#4CAF50"/>
  <path d="M16 8 Q18 10 16 12" fill="#8BC34A"/>
  <path d="M16 12 Q18 14 16 16 Q14 14 16 12" fill="#4CAF50"/>
  <path d="M16 12 Q18 14 16 16" fill="#8BC34A"/>
  <path d="M16 16 Q18 18 16 20 Q14 18 16 16" fill="#4CAF50"/>
  <path d="M16 16 Q18 18 16 20" fill="#8BC34A"/>
  <path d="M16 20 Q18 22 16 24 Q14 22 16 20" fill="#4CAF50"/>
  <path d="M16 20 Q18 22 16 24" fill="#8BC34A"/>
  <path d="M16 24 Q18 26 16 28 Q14 26 16 24" fill="#4CAF50"/>
  <path d="M16 24 Q18 26 16 28" fill="#8BC34A"/>
</svg>
